PathFileType	4	(X/Y/Z)	C:\Users\Biomechanik\SynologyDrive\AlexP\Athlete_03\Athlete_3_25_03_31\Deadlift_bar_01\marker_experimental.trc
DataRate	CameraRate	NumFrames	NumMarkers	Units	OrigDataRate	OrigDataStartFrame	OrigNumFrames
200.000000	200.000000	4	55	mm	200.000000	183	1464
Frame#	Time	BL			BR			GLAB			RFHD			LFHD			C7			T6			SPINMOL			SPINM2			SPINM3			T12			BELTOL			BELT2			BELT3			SACROL			SACR2			SACR3			LTHOL			LTH2			LTH3			LSHAOL			LSHA2			LSHA3			LHEE			LTOE			LM5			RTHOL			RTH2			RTH3			RSHAOL			RSHA2			RSHA3			RHEE			RTOE			RM5			STRN			XIPH			LACR			LUAOL			LUA2			LUA3			LLAOL			LLA2			LLA3			LWRR			LWRU			RACR			RUAOL			RUA2			RUA3			RLAOL			RLA2			RLA3			RWRR			RWRU			
		X1	Y1	Z1	X2	Y2	Z2	X3	Y3	Z3	X4	Y4	Z4	X5	Y5	Z5	X6	Y6	Z6	X7	Y7	Z7	X8	Y8	Z8	X9	Y9	Z9	X10	Y10	Z10	X11	Y11	Z11	X12	Y12	Z12	X13	Y13	Z13	X14	Y14	Z14	X15	Y15	Z15	X16	Y16	Z16	X17	Y17	Z17	X18	Y18	Z18	X19	Y19	Z19	X20	Y20	Z20	X21	Y21	Z21	X22	Y22	Z22	X23	Y23	Z23	X24	Y24	Z24	X25	Y25	Z25	X26	Y26	Z26	X27	Y27	Z27	X28	Y28	Z28	X29	Y29	Z29	X30	Y30	Z30	X31	Y31	Z31	X32	Y32	Z32	X33	Y33	Z33	X34	Y34	Z34	X35	Y35	Z35	X36	Y36	Z36	X37	Y37	Z37	X38	Y38	Z38	X39	Y39	Z39	X40	Y40	Z40	X41	Y41	Z41	X42	Y42	Z42	X43	Y43	Z43	X44	Y44	Z44	X45	Y45	Z45	X46	Y46	Z46	X47	Y47	Z47	X48	Y48	Z48	X49	Y49	Z49	X50	Y50	Z50	X51	Y51	Z51	X52	Y52	Z52	X53	Y53	Z53	X54	Y54	Z54	X55	Y55	Z55	

184	0.915	325.78369140625	731.3991699218751	-2230.843505859375	292.4574279785156	703.87548828125	-209.2205810546874	345.2004699707031	1553.153930664062	-1199.95166015625	309.5382385253906	1593.339477539062	-1135.943481445312	312.9642639160156	1592.017333984375	-1272.029663085938	85.87110900878906	1441.948364257812	-1209.339233398438	41.45707321166992	1261.391235351562	-1220.68896484375	40.36236572265625	1223.428588867188	-1242.305053710938	34.51262283325195	1213.482299804688	-1193.089965820312	51.80419158935547	1159.747924804688	-1228.370361328125	70.72472381591797	1106.262329101562	-1227.00048828125	53.8572998046875	1080.099975585938	-1242.940307617188	53.91710662841797	1076.894653320312	-1192.99462890625	50.17839813232422	1016.854553222656	-1222.462280273438	53.91062927246094	960.9678344726564	-1245.372192382812	55.00871276855469	957.5629882812501	-1193.953247070312	35.82525634765625	901.2474975585939	-1222.718505859375	153.7314605712891	682.5289916992189	-1404.963500976562	105.9739227294922	626.2268676757814	-1374.472412109375	153.2733764648438	621.8777465820314	-1391.803955078125	137.7924346923828	326.5017395019532	-1405.923095703125	90.49846649169922	263.3642883300782	-1393.821533203125	139.6455535888672	264.7223510742189	-1403.090576171875	76.59459686279297	68.12094116210946	-1318.584838867188	293.4067077636719	48.83472442626961	-1332.967651367188	241.9067077636719	29.07418632507333	-1431.675048828125	133.64794921875	695.9550781250001	-1036.102416992188	189.0626220703125	640.6320800781251	-1019.380859375	143.9890289306641	635.3501586914064	-1040.2763671875	114.5701141357422	344.5974426269532	-1024.178344726562	148.7702331542969	274.2393188476563	-1016.049865722656	103.5082321166992	283.4969177246094	-1034.239379882812	79.26513671875	61.29568862915046	-1118.810424804688	291.5438537597656	48.72176742553717	-1096.074462890625	234.282470703125	38.70708465576178	-998.9391479492188	262.7442016601562	1353.050048828125	-1212.276000976562	292.7375183105469	1214.985717773438	-1213.354125976562	156.1717529296875	1408.901000976562	-1382.223266601562	177.9891204833984	1248.189697265625	-1479.170776367188	178.4461059570312	1185.206298828125	-1498.65771484375	220.2992095947266	1198.108032226562	-1471.32421875	262.1193237304688	990.0488891601564	-1508.166748046875	229.8575744628906	917.9531860351564	-1512.596069335938	278.1361389160156	930.0705566406251	-1505.227294921875	321.4783630371094	834.0660400390626	-1497.9912109375	298.843994140625	823.5114135742189	-1422.348266601562	164.0127563476562	1400.4658203125	-1045.832763671875	171.0604095458984	1242.724609375	-957.0237426757811	207.2221069335938	1186.226196289062	-959.9949951171874	159.8672485351562	1180.3759765625	-938.5151367187499	237.3390502929688	967.1013183593751	-930.1223144531249	302.4292907714844	921.1876831054688	-926.4158325195312	254.9096527099609	906.7260131835939	-931.8178100585938	311.5386047363281	831.7907104492189	-933.8145141601562	287.115234375	806.4811401367189	-1007.652038574219	
185	0.92	325.7838745117188	731.4041137695314	-2230.850341796875	292.4280090332031	703.8594360351562	-209.2237091064453	345.2369995117188	1553.166015625	-1199.961547851562	309.5724792480469	1593.351318359375	-1135.949462890625	312.9900512695312	1592.026489257812	-1272.028198242188	85.90511322021484	1441.96142578125	-1209.340209960938	41.47088623046875	1261.417114257812	-1220.686279296875	40.36838150024414	1223.449829101562	-1242.302490234375	34.51963424682617	1213.5068359375	-1193.088989257812	51.80043029785156	1159.772216796875	-1228.3623046875	70.71614074707031	1106.2744140625	-1226.995361328125	53.83491134643555	1080.111206054688	-1242.94140625	53.90450668334961	1076.91015625	-1192.984985351562	50.13756942749023	1016.869873046875	-1222.464721679688	53.89566802978516	960.9774169921876	-1245.362060546875	55.02345657348633	957.5648193359376	-1193.94189453125	35.80375671386719	901.2595214843751	-1222.7080078125	153.7080383300781	682.5395507812501	-1404.9541015625	105.9484176635742	626.2255249023439	-1374.466552734375	153.2500762939453	621.8810424804689	-1391.795776367188	137.7780151367188	326.5008239746095	-1405.920776367188	90.48651123046875	263.3610839843751	-1393.819580078125	139.6340637207031	264.7228088378907	-1403.088989257812	76.59396362304688	68.11973571777352	-1318.585571289062	293.4064636230469	48.83528900146492	-1332.968383789062	241.9060974121094	29.07332229614267	-1431.673461914062	133.6313629150391	695.9582519531251	-1036.101928710938	189.0471038818359	640.6326293945314	-1019.37890625	143.9691619873047	635.3484497070314	-1040.27685546875	114.5631332397461	344.5948486328126	-1024.17626953125	148.7644500732422	274.2373962402344	-1016.050048828125	103.5025100708008	283.4941406250001	-1034.23876953125	79.25790405273438	61.28300857543952	-1118.822509765625	291.54345703125	48.722396850586	-1096.073486328125	234.2825622558594	38.70816421508795	-998.9374389648438	262.7748718261719	1353.045288085938	-1212.276977539062	292.7617492675781	1214.988525390625	-1213.357543945312	156.2011108398438	1408.903930664062	-1382.2236328125	178.0176086425781	1248.18603515625	-1479.14990234375	178.4744567871094	1185.211303710938	-1498.701293945312	220.3268890380859	1198.102172851562	-1471.315795898438	262.1187744140625	990.0435791015626	-1508.165283203125	229.8848724365234	917.9315185546876	-1512.5869140625	278.1383361816406	930.0658569335939	-1505.223510742188	321.4772033691406	834.0504760742189	-1497.98095703125	298.8397827148438	823.5050048828126	-1422.344360351562	164.0380859375	1400.4658203125	-1045.836059570312	171.0935363769531	1242.71630859375	-957.0322875976561	207.2222900390625	1186.21533203125	-960.0715332031249	159.8865203857422	1180.377563476562	-938.5157470703124	237.3385009765625	967.0992431640626	-930.1229858398436	302.4122924804688	921.155517578125	-926.4024658203125	254.9063415527344	906.7222290039064	-931.8184204101562	311.5265808105469	831.7819824218751	-933.81005859375	287.2781677246094	806.5394897460939	-1007.587951660156	
186	0.925	325.7840270996094	731.4083251953126	-2230.8564453125	292.3992004394531	703.8427734375	-209.2261199951171	345.2754821777344	1553.178344726562	-1199.970336914062	309.6081237792969	1593.36328125	-1135.953125	313.0186462402344	1592.035888671875	-1272.026733398438	85.93998718261719	1441.974365234375	-1209.342651367188	41.48632049560547	1261.443481445312	-1220.684448242188	40.37570571899414	1223.471435546875	-1242.301147460938	34.52778244018555	1213.531860351562	-1193.088500976562	51.79724502563477	1159.797729492188	-1228.354125976562	70.70864105224609	1106.286987304688	-1226.990234375	53.81349182128906	1080.123291015625	-1242.942260742188	53.89243698120117	1076.92626953125	-1192.975341796875	50.10526275634766	1016.88525390625	-1222.46337890625	53.88208770751953	960.9879760742189	-1245.351806640625	55.04061126708984	957.5668945312501	-1193.929565429688	35.78178405761719	901.2719726562501	-1222.697387695312	153.6821899414062	682.5504760742189	-1404.949951171875	105.9227066040039	626.2247314453126	-1374.46044921875	153.2269744873047	621.8843383789064	-1391.787231445312	137.7633514404297	326.5001220703126	-1405.918090820312	90.47457885742188	263.3576660156251	-1393.817260742188	139.6223907470703	264.7231750488282	-1403.0869140625	76.59323120117188	68.11846923828134	-1318.586181640625	293.4061584472656	48.83581542968758	-1332.969116210938	241.9056549072266	29.07151985168466	-1431.67138671875	133.6149749755859	695.9611816406251	-1036.100341796875	189.0316162109375	640.6332397460939	-1019.376647949219	143.948974609375	635.3466796875001	-1040.276489257812	114.5560836791992	344.5921020507813	-1024.173706054688	148.7587280273438	274.2354125976563	-1016.0498046875	103.4966735839844	283.4912109375001	-1034.237670898438	79.2508544921875	61.27151870727546	-1118.833129882812	291.5429992675781	48.72285079956061	-1096.072387695312	234.2825622558594	38.70895004272467	-998.9359130859375	262.8062744140625	1353.039794921875	-1212.278076171875	292.7866516113281	1214.990478515625	-1213.361206054688	156.2310333251953	1408.906372070312	-1382.224731445312	178.0464324951172	1248.181640625	-1479.130737304688	178.5024566650391	1185.215454101562	-1498.7412109375	220.3548278808594	1198.096313476562	-1471.307250976562	262.1191711425781	990.0360717773439	-1508.162475585938	229.9097900390625	917.9116821289064	-1512.576416015625	278.1410217285156	930.0598144531251	-1505.219482421875	321.4768981933594	834.0316772460939	-1497.969970703125	298.8360290527344	823.4974365234376	-1422.340087890625	164.0641174316406	1400.46484375	-1045.840209960938	171.1260528564453	1242.706909179688	-957.0415039062499	207.2190399169922	1186.202392578125	-960.1581420898436	159.9066925048828	1180.378051757812	-938.5182495117186	237.3381652832031	967.0964965820314	-930.1245117187499	302.3965148925781	921.1232299804688	-926.393798828125	254.9032745361328	906.7175903320314	-931.8193359375	311.5152893066406	831.7728271484376	-933.8055419921875	287.46337890625	806.6062622070314	-1007.514709472656	
187	0.93	325.7840270996094	731.4115600585939	-2230.8623046875	292.3707580566406	703.8257446289062	-209.2271728515624	345.3159484863281	1553.190795898438	-1199.977905273438	309.6453247070312	1593.375122070312	-1135.954711914062	313.0504455566406	1592.045654296875	-1272.026000976562	85.97573852539062	1441.987182617188	-1209.34619140625	41.50341033935547	1261.470092773438	-1220.683227539062	40.38436508178711	1223.493408203125	-1242.30078125	34.53701400756836	1213.557495117188	-1193.08837890625	51.79483413696289	1159.824340820312	-1228.345825195312	70.70218658447266	1106.300048828125	-1226.984985351562	53.79319000244141	1080.136352539062	-1242.942749023438	53.88091278076172	1076.94287109375	-1192.965698242188	50.08058166503906	1016.900573730469	-1222.458862304688	53.86957168579102	960.9993896484376	-1245.341674804688	55.0587158203125	957.5693359375001	-1193.916748046875	35.75971603393555	901.2849121093751	-1222.6865234375	153.6539611816406	682.5619506835939	-1404.951171875	105.8968658447266	626.2245483398439	-1374.455200195312	153.2042541503906	621.8876953125001	-1391.7783203125	137.7485656738281	326.4996948242189	-1405.914916992188	90.46279144287109	263.3540344238282	-1393.814208984375	139.6106414794922	264.7235107421876	-1403.084228515625	76.59241485595703	68.1171417236329	-1318.586791992188	293.4058227539062	48.83629608154305	-1332.969970703125	241.9054107666016	29.06874084472665	-1431.668823242188	133.5988311767578	695.9639282226564	-1036.097900390625	189.0161743164062	640.6339111328126	-1019.374145507812	143.9285125732422	635.3447875976564	-1040.275512695312	114.548942565918	344.5891418457032	-1024.170654296875	148.7530517578125	274.2333374023438	-1016.049255371094	103.4907302856445	283.4880981445313	-1034.236083984375	79.24420166015625	61.26158142089851	-1118.842163085938	291.5424499511719	48.72306060791022	-1096.071166992188	234.2824554443359	38.70942687988288	-998.9345092773438	262.83837890625	1353.033569335938	-1212.279296875	292.8122863769531	1214.991455078125	-1213.364868164062	156.2614440917969	1408.908325195312	-1382.2265625	178.0751953125	1248.176635742188	-1479.114624023438	178.5296936035156	1185.218505859375	-1498.77587890625	220.3820648193359	1198.090454101562	-1471.298461914062	262.1204528808594	990.0263061523439	-1508.158325195312	229.9330596923828	917.8934326171876	-1512.56396484375	278.1438903808594	930.0522460937501	-1505.215087890625	321.4772644042969	834.0098876953126	-1497.958251953125	298.8326110839844	823.4886474609376	-1422.335327148438	164.0911407470703	1400.462646484375	-1045.845092773438	171.1575164794922	1242.696411132812	-957.0510864257811	207.2123107910156	1186.187622070312	-960.2533569335936	159.9275817871094	1180.377563476562	-938.5225219726561	237.3379974365234	967.0928955078126	-930.1267700195311	302.3819274902344	921.0912475585938	-926.3890380859375	254.9003295898438	906.7119140625001	-931.8204956054688	311.5047302246094	831.7631835937501	-933.8009643554688	287.6647644042969	806.6777954101564	-1007.434814453125	
